<svg id="search_1_" data-name="search (1)" xmlns="http://www.w3.org/2000/svg" width="19.385" height="19.338" viewBox="0 0 19.385 19.338">
  <g id="Group_11088" data-name="Group 11088" transform="translate(2.289)">
    <g id="Group_11087" data-name="Group 11087">
      <path id="Path_15860" data-name="Path 15860" d="M8.548.616A8.525,8.525,0,1,1,0,9.141,8.546,8.546,0,0,1,8.548.616Zm0,15.648A7.123,7.123,0,1,0,1.4,9.141,7.143,7.143,0,0,0,8.548,16.264Z" transform="translate(0 -0.616)" fill="#fff"/>
    </g>
  </g>
  <g id="Group_11090" data-name="Group 11090" transform="translate(0 13.359)">
    <g id="Group_11089" data-name="Group 11089" transform="translate(0)">
      <path id="Path_15861" data-name="Path 15861" d="M353.673,358.248l4.6-4.578a.7.7,0,1,1,.988.994l-4.6,4.578a.7.7,0,0,1-.988-.994Z" transform="translate(-353.466 -353.466)" fill="#fff"/>
    </g>
  </g>
</svg>
